<?xml version="1.0" encoding="UTF-8"?>
<svg version="1.1" xmlns="http://www.w3.org/2000/svg" width="750" height="514">
<path d="M0 0 C9.90722372 0.24510059 15.62880881 5.6930671 22.48046875 12.3515625 C28.83575748 20.33356265 32.22014946 29.36124362 35.25 39 C36.02338387 41.3871584 36.79816065 43.7738659 37.57421875 46.16015625 C37.96399902 47.36687988 38.3537793 48.57360352 38.75537109 49.81689453 C40.62603465 55.54633288 42.58704197 61.24348304 44.5625 66.9375 C44.93793945 68.0207959 45.31337891 69.1040918 45.70019531 70.22021484 C48.16999811 77.31306496 50.72631089 84.36937561 53.35083008 91.40625 C55.5737415 97.3866522 57.67307814 103.40502574 59.75 109.4375 C63.85955856 121.34709897 68.23582258 133.15165968 72.64208984 144.95410156 C73.95482403 148.48408485 75.25465845 152.01857379 76.55078125 155.5546875 C80.66066644 166.75303984 84.85655171 177.88002531 89.46484375 188.8828125 C94.9375 202.09267241 94.9375 202.09267241 94.9375 206.4375 C95.75887451 205.94846191 96.58024902 205.45942383 97.42651367 204.95556641 C105.79034583 200.03990187 114.31377791 195.73380926 123.15893555 191.75488281 C125.24298826 190.81565999 127.3198416 189.86172594 129.39648438 188.90625 C138.44354116 184.78344547 147.60777947 181.31642987 157.01260376 178.10412598 C161.75350632 176.46226667 166.43361381 174.65207044 171.125 172.875 C172.15181885 172.492229 173.1786377 172.10945801 174.23657227 171.71508789 C178.51344658 170.12059025 182.779842 168.52766784 186.984375 166.75 C197.05124126 162.66758419 208.86302879 160.95654445 219.25 165.125 C222.75317663 166.85171789 224.69349063 169.2673871 226.9375 172.4375 C227.72705078 175.19458008 227.72705078 175.19458008 228.1328125 178.20703125 C228.36919434 179.89421265 228.36919434 179.89421265 228.61035156 181.61547852 C228.75956055 182.81487061 228.90876953 184.0142627 229.0625 185.25 C229.22717773 186.4887085 229.39185547 187.72741699 229.56152344 189.00366211 C231.5510831 204.43259879 233.14054001 219.86921914 232.9375 235.4375 C234.02804687 234.9528125 235.11859375 234.468125 236.2421875 233.96875 C236.96164551 233.6490625 237.68110352 233.329375 238.42236328 233 C240.03813731 232.2817315 241.6536915 231.5629683 243.26904297 230.84375 C247.36718664 229.01989004 251.46781047 227.20253141 255.578125 225.40625 C269.34152444 219.37674081 282.70949657 212.86608863 295.69921875 205.3046875 C298.62454622 203.61794862 301.57844979 202.01704017 304.5625 200.4375 C309.54265144 197.73961415 314.21852014 194.69036161 318.8984375 191.50390625 C320.91006218 190.1361049 322.93613098 188.78928838 324.9765625 187.46484375 C332.03266189 182.87929079 338.49384182 177.84033234 344.9375 172.4375 C348.25048132 169.74477967 351.58636304 167.08254456 354.9375 164.4375 C355.97003906 163.61765625 355.97003906 163.61765625 357.0234375 162.78125 C358.96223679 161.27925529 360.92727081 159.84228615 362.9375 158.4375 C363.63359375 157.94894531 364.3296875 157.46039063 365.046875 156.95703125 C370.90854253 153.24672042 376.06283209 152.57816651 382.9375 153.4375 C384.69056117 155.19056117 384.27461044 157.48694533 384.375 159.875 C384.29169374 166.9477015 381.93450727 170.79224231 377.9375 176.4375 C376.88986862 178.07579592 375.84265481 179.71438702 374.80517578 181.35913086 C351.27308293 218.5386039 324.56718742 253.54776669 294.52563477 285.70605469 C293.40487091 286.92795435 292.29997789 288.16450363 291.20678711 289.41113281 C283.9497051 297.65400597 276.17816275 305.3829337 268.41479492 313.14550781 C265.97612413 315.58639759 263.54560355 318.03522249 261.11523438 320.484375 C259.56819646 322.03434153 258.02068788 323.58383845 256.47265625 325.1328125 C255.74563004 325.86702423 255.01860382 326.60123596 254.26954651 327.35769653 C253.59802048 328.02614594 252.92649445 328.69459534 252.23461914 329.38330078 C251.64443497 329.97490997 251.05425079 330.56651917 250.44618225 331.17605591 C248.9375 332.4375 248.9375 332.4375 246.9375 332.4375 C246.72351563 332.9840625 246.50953125 333.530625 246.2890625 334.09375 C242.50564457 340.65459034 233.9396682 348.0174952 226.9296875 350.984375 C220.48521076 352.45017755 214.48557654 350.65738524 208.7265625 347.765625 C205.48086421 345.35615465 203.25186056 343.20145759 202.51617432 339.07333374 C202.297408 336.0676444 202.20087484 333.07955893 202.14453125 330.06640625 C202.08999031 328.395532 202.08999031 328.395532 202.03434753 326.69090271 C201.9216224 323.12754034 201.83502633 319.56412086 201.75 316 C201.64883993 312.47533196 201.54231096 308.95085489 201.43527222 305.42636108 C201.3669944 303.16294049 201.30097803 300.89945044 201.23733521 298.63589478 C201.01231007 290.88108705 200.62806624 283.16670027 199.9375 275.4375 C177.59868624 285.73283947 156.35096975 297.13646496 136.16796875 311.21875 C121.06473312 321.59195174 121.06473312 321.59195174 113.0625 321.75 C111.82757813 321.78738281 110.59265625 321.82476562 109.3203125 321.86328125 C105.9375 321.4375 105.9375 321.4375 103.6953125 319.890625 C101.4467527 316.75263488 100.05773503 313.45440619 98.6875 309.875 C98.07776916 308.33946768 97.4670556 306.80432529 96.85546875 305.26953125 C96.5414209 304.47369629 96.22737305 303.67786133 95.90380859 302.85791016 C94.32474317 298.90266644 92.66164872 294.98360057 91 291.0625 C90.33183387 289.4805521 89.66386695 287.89852005 88.99609375 286.31640625 C88.66077637 285.52250488 88.32545898 284.72860352 87.97998047 283.91064453 C86.89053114 281.32607271 85.80604453 278.73946167 84.72265625 276.15234375 C84.36099365 275.2897998 83.99933105 274.42725586 83.62670898 273.53857422 C82.93379154 271.88568236 82.24184665 270.23238234 81.55102539 268.57861328 C81.23770264 267.83208496 80.92437988 267.08555664 80.6015625 266.31640625 C80.32779785 265.6622876 80.0540332 265.00816895 79.77197266 264.33422852 C78.89147326 262.33288276 77.93042041 260.38519319 76.9375 258.4375 C74.87256297 260.16382363 72.81053697 261.89343765 70.75 263.625 C70.17185547 264.10775391 69.59371094 264.59050781 68.99804688 265.08789062 C65.47108704 268.05691331 62.17883894 271.1534416 58.9375 274.4375 C57.36401587 275.86509819 55.78059911 277.28182432 54.1875 278.6875 C46.58788555 285.49666421 39.54886226 292.67075404 32.9375 300.4375 C31.98604926 301.54849592 31.03419133 302.6591432 30.08203125 303.76953125 C29.56898438 304.36822021 29.0559375 304.96690918 28.52734375 305.58374023 C27.46960809 306.81706131 26.41101734 308.04964956 25.3515625 309.28149414 C23.16240166 311.82873718 20.98527962 314.37923217 18.85546875 316.9765625 C14.9531087 321.68053602 11.22481091 325.72431444 4.89453125 326.77734375 C0.37310713 326.98941805 -2.47203828 326.10470013 -6.0625 323.4375 C-7.0525 322.7775 -8.0425 322.1175 -9.0625 321.4375 C-9.0625 320.7775 -9.0625 320.1175 -9.0625 319.4375 C-10.0525 319.1075 -11.0425 318.7775 -12.0625 318.4375 C-12.0625 317.7775 -12.0625 317.1175 -12.0625 316.4375 C-12.60390625 316.2209375 -13.1453125 316.004375 -13.703125 315.78125 C-16.87895344 313.97250003 -19.26978081 311.52026201 -21.8125 308.9375 C-22.31910156 308.43863281 -22.82570313 307.93976563 -23.34765625 307.42578125 C-27.0625 303.69091139 -27.0625 303.69091139 -27.0625 301.4375 C-27.65933594 301.17710937 -28.25617188 300.91671875 -28.87109375 300.6484375 C-31.22356783 299.34849639 -32.42300785 298.1257846 -34.125 296.0625 C-37.13845935 292.49409952 -40.25779685 289.04481552 -43.4375 285.625 C-48.55626922 280.08720677 -53.33878177 274.31611527 -58.0625 268.4375 C-59.72050479 266.43003284 -61.39039048 264.43324362 -63.0625 262.4375 C-67.17798147 270.01289953 -70.21008457 277.89243445 -73.15429688 285.97509766 C-74.16066417 288.70365157 -75.19538017 291.42042488 -76.234375 294.13671875 C-79.78544778 303.44222721 -83.27943736 312.74060732 -86.25 322.25 C-86.6049353 323.38429443 -86.6049353 323.38429443 -86.96704102 324.54150391 C-88.20138584 328.5322814 -89.37765984 332.53539455 -90.515625 336.5546875 C-93.45966278 346.7436436 -95.92257871 354.16625041 -104.9375 360.4375 C-109.75243836 361.97828028 -114.52956723 362.71847677 -119.19335938 360.35986328 C-121.34858242 358.83196041 -123.3614878 357.21019013 -125.375 355.5 C-126.86812972 354.29512682 -128.36162067 353.09070116 -129.85546875 351.88671875 C-130.57524902 351.2942334 -131.2950293 350.70174805 -132.03662109 350.09130859 C-134.69904104 347.91786527 -137.42852829 345.86212851 -140.1875 343.8125 C-141.13625 343.10351562 -142.085 342.39453125 -143.0625 341.6640625 C-157.2871434 331.10670998 -171.64017756 320.72289311 -186.0625 310.4375 C-187.50695416 313.32640833 -187.38347766 315.97806814 -187.5703125 319.203125 C-187.61133087 319.90930969 -187.65234924 320.61549438 -187.6946106 321.34307861 C-188.17568925 329.94222919 -188.49290768 338.54883981 -188.82131958 347.15487671 C-189.64946222 368.77164012 -190.69346163 390.37329976 -191.8270874 411.9760437 C-192.47967951 424.46332281 -193.11402128 436.94270854 -193.37109375 449.4453125 C-193.39944054 450.79527061 -193.39944054 450.79527061 -193.42835999 452.17250061 C-193.50863746 456.23646822 -193.56832938 460.29935298 -193.59594727 464.36401367 C-193.61591584 465.75960476 -193.63600811 467.15519409 -193.65625 468.55078125 C-193.66333984 469.72423096 -193.67042969 470.89768066 -193.67773438 472.10668945 C-194.35896214 478.00389151 -196.76323939 483.2610754 -201.0625 487.4375 C-204.80894248 488.88498914 -207.36923316 488.59977957 -211 487.125 C-225.3993314 478.97909252 -229.16992486 455.32175955 -233.87008667 440.62356567 C-239.56198427 422.84391188 -245.56422094 405.20729153 -251.90771484 387.65087891 C-253.57621683 383.00799874 -255.19504892 378.34834924 -256.8125 373.6875 C-266.1266375 346.98751623 -276.41893204 320.63252672 -287.0625 294.4375 C-287.65732178 292.97328613 -287.65732178 292.97328613 -288.26416016 291.47949219 C-296.8767903 270.36215508 -305.82850119 249.23368631 -316.26171875 228.94140625 C-317.4743126 226.58197744 -318.66685666 224.22207811 -319.83203125 221.83984375 C-331.23173439 198.5778761 -343.76195498 176.08906559 -358.265625 154.62890625 C-358.72984863 153.92983154 -359.19407227 153.23075684 -359.67236328 152.51049805 C-360.59656614 151.13230935 -361.5429862 149.76875455 -362.51123047 148.42114258 C-365.85429486 143.56721302 -366.87992053 139.87283484 -366.6875 134 C-366.67203125 133.25572754 -366.6565625 132.51145508 -366.640625 131.74462891 C-366.30549414 124.37658367 -364.23713637 119.63034652 -359.01953125 114.3828125 C-353.38361139 109.27044804 -349.81770187 107.72673306 -342.10546875 107.76953125 C-330.79319947 109.00880467 -319.15922474 117.83343285 -310.38671875 124.6484375 C-308.68661915 125.9570856 -306.92964246 127.19273836 -305.14453125 128.3828125 C-284.34299002 142.25050665 -266.24703739 160.22756949 -248.5625 177.75 C-247.71856689 178.58088135 -246.87463379 179.4117627 -246.00512695 180.26782227 C-245.22999756 181.04182373 -244.45486816 181.8158252 -243.65625 182.61328125 C-242.96208984 183.30333252 -242.26792969 183.99338379 -241.55273438 184.7043457 C-240.0625 186.4375 -240.0625 186.4375 -240.0625 188.4375 C-239.16917969 188.82615234 -239.16917969 188.82615234 -238.2578125 189.22265625 C-235.88557818 190.53540513 -234.65831691 191.79531927 -232.9375 193.875 C-229.98118775 197.40295616 -226.92252045 200.82245296 -223.8203125 204.22265625 C-223.13110718 204.97875183 -223.13110718 204.97875183 -222.42797852 205.75012207 C-221.30684006 206.97987537 -220.18476704 208.20877655 -219.0625 209.4375 C-218.44215615 200.54143212 -217.82466662 191.64517124 -217.2103672 182.74868393 C-216.92472803 178.61312747 -216.63827311 174.47763169 -216.34960938 170.34228516 C-215.12524929 152.79356351 -213.96160989 135.24561786 -213.01171875 117.6796875 C-212.27508101 104.08140213 -211.49901274 90.48924831 -210.47729492 76.90869141 C-210.3223935 74.79863792 -210.17660489 72.68790032 -210.03881836 70.57666016 C-209.83136444 67.41126107 -209.59643738 64.24894042 -209.35546875 61.0859375 C-209.30005417 60.15679535 -209.24463959 59.2276532 -209.18754578 58.27035522 C-208.53948471 50.44862747 -206.14200534 43.44368379 -200.4375 37.875 C-196.23128143 35.32913086 -192.91846887 35.03946977 -188.0625 35.4375 C-178.33916151 38.55347334 -173.25470451 47.35650181 -167.5 55.25 C-166.89575195 56.07459717 -166.29150391 56.89919434 -165.66894531 57.7487793 C-157.32956642 69.14542398 -149.07114754 80.60057386 -140.87670898 92.10180664 C-137.39827569 96.97976308 -133.88741677 101.83397865 -130.375 106.6875 C-126.53430705 111.99591772 -122.72704264 117.32227734 -118.98828125 122.703125 C-115.7120889 127.35491942 -112.36547276 131.95599791 -109.02905273 136.56469727 C-105.70762206 141.15414662 -102.40585247 145.75649027 -99.125 150.375 C-92.88665983 159.14672289 -86.46582254 167.78593677 -80.0625 176.4375 C-78.2045851 173.04356294 -77.10953954 169.5903609 -75.99609375 165.890625 C-75.59389129 164.56921856 -75.19128658 163.24793451 -74.78833008 161.92675781 C-74.57850494 161.2353772 -74.36867981 160.54399658 -74.15249634 159.83166504 C-70.24619753 146.99519555 -65.96424657 134.39344722 -61.1328125 121.87109375 C-59.50878848 117.65827162 -58.00370602 113.42008975 -56.55932617 109.14282227 C-19.80401983 0.47351384 -19.80401983 0.47351384 0 0 Z M9.9375 73.4375 C0.97123568 86.10722132 -5.36549551 100.85230236 -11.875 114.875 C-12.41382813 116.03483398 -12.95265625 117.19466797 -13.5078125 118.38964844 C-24.00724916 141.19270534 -33.06767847 164.72276331 -41.06689453 188.51220703 C-42.15310418 191.70371365 -43.27638396 194.88090552 -44.40234375 198.05859375 C-45.16462565 200.24719977 -45.92635846 202.43599713 -46.6875 204.625 C-47.05512451 205.64754883 -47.42274902 206.67009766 -47.80151367 207.72363281 C-48.12740479 208.67463867 -48.4532959 209.62564453 -48.7890625 210.60546875 C-49.23113037 211.86266724 -49.23113037 211.86266724 -49.68212891 213.14526367 C-50.15377348 215.98754284 -49.60523496 217.05106709 -48.0625 219.4375 C-46.74611957 221.15463895 -45.38682458 222.83923476 -44 224.5 C-43.19433594 225.469375 -42.38867188 226.43875 -41.55859375 227.4375 C-40.73488281 228.4275 -39.91117187 229.4175 -39.0625 230.4375 C-37.56167845 232.29100174 -36.06165886 234.14515318 -34.5625 236 C-30.88687414 240.49527761 -27.07005389 244.83283107 -23.16015625 249.125 C-21.36742554 251.10134372 -19.61454773 253.1020673 -17.875 255.125 C-14.34259659 259.17030507 -10.70961396 263.12082433 -7.0625 267.0625 C-6.19008667 268.01322388 -6.19008667 268.01322388 -5.30004883 268.9831543 C-1.44874598 273.1245089 2.58316619 276.82740182 6.9375 280.4375 C7.30810547 280.03660156 7.67871094 279.63570312 8.06054688 279.22265625 C34.36552371 250.8248722 34.36552371 250.8248722 48.9375 239.4375 C51.84117397 237.09295339 54.73239035 234.73317464 57.625 232.375 C59.02446083 231.23793808 60.42417715 230.1011905 61.82421875 228.96484375 C62.42451904 228.47749756 63.02481934 227.99015137 63.64331055 227.48803711 C64.07039307 227.14135986 64.49747559 226.79468262 64.9375 226.4375 C63.12384057 220.12482143 61.08899967 213.98608059 58.6875 207.875 C54.45329952 196.92254861 50.41004297 185.90201352 46.375 174.875 C46.06002563 174.01607147 45.74505127 173.15714294 45.42053223 172.27218628 C41.6494122 161.98592087 37.95081314 151.67795517 34.34719849 141.33177185 C32.51614846 136.0772195 30.64441869 130.8399124 28.73022461 125.61499023 C22.41128725 108.35476957 16.69213627 90.89191116 10.9375 73.4375 C10.6075 73.4375 10.2775 73.4375 9.9375 73.4375 Z M-174.0625 116.4375 C-174.10737549 117.118125 -174.15225098 117.79875 -174.19848633 118.5 C-175.12612892 132.39962098 -176.20094993 146.26100995 -177.5625 160.125 C-178.69012677 171.64486166 -179.53176872 183.15560067 -180.17523193 194.7121582 C-180.9044247 207.75987892 -181.95076207 220.77083704 -183.09765625 233.78808594 C-183.19353531 234.88987938 -183.19353531 234.88987938 -183.29135132 236.01393127 C-183.4647458 238.0012823 -183.64166785 239.98832467 -183.81884766 241.9753418 C-184.58412942 247.86762766 -184.58412942 247.86762766 -182.90429688 253.29272461 C-182.36869141 253.80327393 -181.83308594 254.31382324 -181.28125 254.83984375 C-180.39542236 255.70452271 -180.39542236 255.70452271 -179.49169922 256.58666992 C-178.85506348 257.17681885 -178.21842773 257.76696777 -177.5625 258.375 C-176.91684082 258.99544189 -176.27118164 259.61588379 -175.60595703 260.25512695 C-171.85927646 263.83270288 -168.05046808 267.33882571 -164.09375 270.68359375 C-161.99534395 272.49548667 -159.97309799 274.37877191 -157.95068359 276.2746582 C-148.35755408 285.23165086 -138.0902849 293.14514928 -127.3125 300.625 C-126.6205957 301.10710937 -125.92869141 301.58921875 -125.21582031 302.0859375 C-121.93745226 304.57818312 -121.93745226 304.57818312 -118.0625 305.4375 C-117.65 304.23738281 -117.2375 303.03726563 -116.8125 301.80078125 C-116.22994065 300.11691953 -115.64653535 298.43335035 -115.0625 296.75 C-114.58937378 295.38512451 -114.58937378 295.38512451 -114.10668945 293.99267578 C-112.53713838 289.50504806 -110.93328548 285.04357508 -109.16796875 280.62890625 C-104.69054469 269.41871205 -101.01974539 258.07603136 -97.625 246.5 C-97.40363373 245.74781189 -97.18226746 244.99562378 -96.95419312 244.22064209 C-93.92020852 234.45677719 -93.92020852 234.45677719 -92.0625 224.4375 C-93.34888736 221.97894575 -93.34888736 221.97894575 -95.4375 219.8125 C-98.61372449 216.12166074 -101.65375424 212.40704352 -104.5625 208.5 C-105.31402344 207.49195313 -106.06554687 206.48390625 -106.83984375 205.4453125 C-110.27538039 200.79616802 -113.67296225 196.12023488 -117.0625 191.4375 C-118.29136886 189.74978312 -119.5205429 188.06228841 -120.75 186.375 C-123.18831688 183.02529657 -125.61696291 179.66893122 -128.03515625 176.3046875 C-133.90564163 168.14284777 -139.83238606 160.03226126 -145.88037109 152.00097656 C-151.78002512 144.16503595 -157.62239578 136.33498466 -162.8359375 128.01953125 C-163.24070313 127.49746094 -163.64546875 126.97539063 -164.0625 126.4375 C-164.7225 126.4375 -165.3825 126.4375 -166.0625 126.4375 C-166.31 125.715625 -166.5575 124.99375 -166.8125 124.25 C-168.18519592 121.16143418 -169.78603296 118.92738582 -172.0625 116.4375 C-172.7225 116.4375 -173.3825 116.4375 -174.0625 116.4375 Z M-290.0625 196.4375 C-288.17392296 202.36783945 -286.02993735 208.10089804 -283.5625 213.8125 C-271.83046709 241.36254019 -260.09589216 269.19599847 -250.44335938 297.55761719 C-248.54106427 303.14003134 -246.45789527 308.6319564 -244.3125 314.125 C-240.09522657 324.97437784 -236.4619434 336.01131314 -232.83105469 347.06713867 C-232.38100508 348.43673408 -231.93081399 349.80628302 -231.48046875 351.17578125 C-231.26709869 351.82469833 -231.05372864 352.47361542 -230.83389282 353.14219666 C-229.35318628 357.62077956 -227.77391791 362.04239687 -226.0625 366.4375 C-223.96337022 362.9782823 -223.76819385 360.16475685 -223.66772461 356.15380859 C-223.63106186 354.87661957 -223.59439911 353.59943054 -223.55662537 352.28353882 C-223.52589365 350.8843414 -223.49530381 349.48514086 -223.46484375 348.0859375 C-223.4261229 346.62934075 -223.38652004 345.1727672 -223.34608459 343.71621704 C-223.24128383 339.86303165 -223.14751546 336.00965671 -223.05633545 332.15612793 C-222.94643162 327.58398563 -222.82553088 323.01212262 -222.70325661 318.44029617 C-222.60384898 314.71152939 -222.51004306 310.9828221 -222.42929077 307.25360107 C-222.27349304 300.37678553 -222.03527949 293.53568274 -221.53564453 286.67285156 C-221.45770157 285.48204987 -221.37975861 284.29124817 -221.29945374 283.06436157 C-221.1492532 280.87284801 -220.96998263 278.68303812 -220.75511169 276.49691772 C-220.35471889 271.08055465 -220.35471889 271.08055465 -222.54933167 266.28434753 C-224.305018 264.52506812 -226.12548316 262.99037675 -228.0625 261.4375 C-229.9849071 259.05987811 -231.78063015 256.62935363 -233.58203125 254.16015625 C-234.07058594 253.59167969 -234.55914062 253.02320313 -235.0625 252.4375 C-235.7225 252.4375 -236.3825 252.4375 -237.0625 252.4375 C-237.27519531 251.90640625 -237.48789063 251.3753125 -237.70703125 250.828125 C-239.58476597 247.51638538 -242.14198479 244.92703873 -244.75 242.1875 C-248.00028278 238.74211723 -251.21171314 235.28418325 -254.30053711 231.69238281 C-257.87947583 227.59290701 -261.63915173 223.71582667 -265.4921875 219.875 C-266.16798859 219.19824219 -266.84378967 218.52148438 -267.54006958 217.82421875 C-268.95224374 216.41137005 -270.36565749 214.99975932 -271.78027344 213.58935547 C-273.95625805 211.41878865 -276.12677483 209.2428546 -278.296875 207.06640625 C-279.67415812 205.68978289 -281.05175085 204.3134692 -282.4296875 202.9375 C-283.08065399 202.28450928 -283.73162048 201.63151855 -284.40231323 200.95874023 C-286.85336236 197.90239065 -286.85336236 197.90239065 -290.0625 196.4375 Z M189.9375 195.4375 C179.94207293 199.11589783 170.20981997 203.2920385 160.49047852 207.63842773 C158.01068955 208.74522895 155.52603496 209.84054921 153.04101562 210.93554688 C144.39496379 214.77633724 136.05863669 218.85332849 127.91577148 223.67553711 C124.96041618 225.42394265 121.96544204 227.06871356 118.9375 228.6875 C115.11395401 230.7545869 111.49289499 232.93911433 107.9375 235.4375 C108.60743454 239.66121625 110.00286196 243.28320033 111.66796875 247.21484375 C111.94087234 247.86264297 112.21377594 248.5104422 112.49494934 249.1778717 C113.36725764 251.24546267 114.2460398 253.3102294 115.125 255.375 C115.69638529 256.72703538 116.26735237 258.07924759 116.83789062 259.43164062 C120.50542406 268.114053 124.21737186 276.7775157 127.9375 285.4375 C131.98792008 285.4375 134.59886255 283.54912465 138 281.5625 C139.46076553 280.72756364 140.92170933 279.89293911 142.3828125 279.05859375 C144.60439285 277.78106663 146.82518987 276.50218627 149.04589844 275.22314453 C161.48067257 268.09117719 174.26267387 261.84790189 187.22363281 255.73144531 C190.82087005 254.01631781 194.38167594 252.23672992 197.9375 250.4375 C196.98230396 238.34672903 195.76169247 226.29978415 194.19958496 214.27227783 C194.02511715 212.92606409 193.85331502 211.57950214 193.6842041 210.23260498 C193.44363603 208.32717643 193.19080611 206.42330827 192.9375 204.51953125 C192.7209375 202.86787964 192.7209375 202.86787964 192.5 201.18286133 C192.07596303 198.23742677 192.07596303 198.23742677 189.9375 195.4375 Z M293.8125 232.9375 C293.10399902 233.29553711 292.39549805 233.65357422 291.66552734 234.02246094 C288.70027519 235.52112071 285.73965093 237.02880228 282.77929688 238.53710938 C280.70872891 239.59062357 278.63567825 240.6391343 276.5625 241.6875 C275.94616699 242.00396484 275.32983398 242.32042969 274.69482422 242.64648438 C270.44619962 244.79386868 266.12029775 246.60961443 261.68994141 248.34863281 C256.53415752 250.38826348 251.42802095 252.5493527 246.3125 254.6875 C242.55875 256.255 238.805 257.8225 234.9375 259.4375 C235.2675 272.9675 235.5975 286.4975 235.9375 300.4375 C240.64676239 296.40098938 245.15236412 292.38182392 249.52734375 288.015625 C250.41142662 287.13653473 250.41142662 287.13653473 251.31336975 286.23968506 C252.54395284 285.01412076 253.77322544 283.78723928 255.0012207 282.55908203 C256.88930504 280.67321174 258.78528372 278.79551599 260.68164062 276.91796875 C261.88069599 275.72184282 263.07928123 274.52524538 264.27734375 273.328125 C264.84597641 272.76667786 265.41460907 272.20523071 266.00047302 271.62677002 C268.97981837 269.02313179 268.97981837 269.02313179 269.9375 265.4375 C270.5975 265.4375 271.2575 265.4375 271.9375 265.4375 C273.47317044 263.93865341 273.47317044 263.93865341 275.0625 261.96875 C279.51664774 256.73074603 284.23993848 251.77459056 288.9765625 246.79296875 C292.31819024 243.26426147 295.63222781 239.71374262 298.875 236.09375 C299.44089844 235.46275391 300.00679687 234.83175781 300.58984375 234.18164062 C302.14357981 232.36895 302.14357981 232.36895 302.9375 229.4375 C299.57006356 229.4375 296.7588628 231.42857356 293.8125 232.9375 Z " fill="#FFFFFF" transform="translate(366.0625,-0.43750000000000006)"/>
<path d="M0 0 C5.94 0 11.88 0 18 0 C18 11.55 18 23.1 18 35 C19.65 35 21.3 35 23 35 C23.24621094 34.44570313 23.49242187 33.89140625 23.74609375 33.3203125 C27.93227709 25.57391715 34.84148725 18.85998891 40.87109375 12.50390625 C43.0893234 10.0713892 43.0893234 10.0713892 44.53515625 7.15234375 C46.46806907 3.77568278 47.67072792 2.08622793 51 0 C58.57284401 -1.25312199 66.38520607 -0.60895867 74 0 C72.26383071 3.69247839 70.10549826 6.2559743 67.3125 9.25 C66.39921125 10.23779303 65.48645231 11.22607617 64.57421875 12.21484375 C63.72472656 13.13394531 62.87523437 14.05304688 62 15 C59.63680527 17.64121764 57.31835076 20.31940693 55 23 C53.97916667 24.16666667 52.95833333 25.33333333 51.9375 26.5 C50.83303584 27.77057479 49.72887119 29.04141 48.625 30.3125 C48.0882666 30.92391846 47.5515332 31.53533691 46.99853516 32.1652832 C44.76000037 34.75464386 43.09336591 36.71990228 42 40 C43.54620463 42.79788084 43.54620463 42.79788084 45.8125 45.8125 C46.22193848 46.38508545 46.63137695 46.9576709 47.05322266 47.54760742 C48.35986575 49.37170101 49.67971546 51.18576455 51 53 C52.22108684 54.6995752 53.4382827 56.40187766 54.65478516 58.10473633 C55.47217824 59.24872685 56.29087649 60.39178588 57.11083984 61.53393555 C60.92752309 66.86117359 64.64021481 72.25781791 68.33349609 77.67114258 C68.76871582 78.30818115 69.20393555 78.94521973 69.65234375 79.6015625 C70.0582373 80.19614258 70.46413086 80.79072266 70.88232422 81.40332031 C71.82023305 82.74319007 72.81244391 84.04482033 73.81640625 85.3359375 C75 87 75 87 75 89 C55.70287942 91.19559636 55.70287942 91.19559636 50.09033203 87.86767578 C46.93111098 84.78286229 45.00000736 80.9876035 43.06689453 77.05810547 C41.22566534 73.5062606 38.89375489 70.28810444 36.625 67 C35.4451955 65.22713118 34.27474688 63.44843181 33.10644531 61.66796875 C32.3568162 60.53790121 31.59531216 59.41563748 30.82324219 58.30078125 C28 54.20596466 28 54.20596466 28 52 C24.7 52 21.4 52 18 52 C18 64.21 18 76.42 18 89 C12.06 89 6.12 89 0 89 C0 76.79 0 64.58 0 52 C-3.3 52 -6.6 52 -10 52 C-11 51 -11 51 -11.09765625 47.40234375 C-11.0909822 45.91403133 -11.07902183 44.42573568 -11.0625 42.9375 C-11.05798828 42.17888672 -11.05347656 41.42027344 -11.04882812 40.63867188 C-11.0370068 38.75908129 -11.01907078 36.87953101 -11 35 C-7.37 35 -3.74 35 0 35 C0 23.45 0 11.9 0 0 Z " fill="#FFFFFF" transform="translate(269,397)"/>
<path d="M0 0 C7.10770478 5.75385625 10.13430747 13.20876727 11.125 22.125 C10.69706156 31.09387648 6.00774311 38.17609948 -0.3125 44.1875 C-7.93875618 51.04810826 -15.91972616 57.2851635 -24.3125 63.1875 C-26.6225 64.8375 -28.9325 66.4875 -31.3125 68.1875 C-11.0175 68.6825 -11.0175 68.6825 9.6875 69.1875 C9.6875 74.4675 9.6875 79.7475 9.6875 85.1875 C-12.4225 85.1875 -34.5325 85.1875 -57.3125 85.1875 C-57.3125 67.1875 -57.3125 67.1875 -53.8671875 62.75390625 C-51.62329102 61.1862793 -51.62329102 61.1862793 -49.1875 59.75 C-47.52676243 58.62325218 -45.86661238 57.49563794 -44.20703125 56.3671875 C-43.37768066 55.83448242 -42.54833008 55.30177734 -41.69384766 54.75292969 C-38.25562393 52.49273997 -35.07407939 49.9572308 -31.875 47.375 C-30.75468144 46.48990332 -29.63360613 45.60576355 -28.51171875 44.72265625 C-27.44518501 43.87776508 -26.3787768 43.03271542 -25.3125 42.1875 C-24.78479004 41.77097168 -24.25708008 41.35444336 -23.71337891 40.92529297 C-22.19976196 39.72730732 -20.69348138 38.52007027 -19.1875 37.3125 C-18.33929688 36.63445312 -17.49109375 35.95640625 -16.6171875 35.2578125 C-13.64277929 32.58588648 -11.10836986 29.77923972 -9.3125 26.1875 C-8.97828045 20.5582837 -8.97828045 20.5582837 -10.3125 15.1875 C-12.12851365 13.98746657 -12.12851365 13.98746657 -14.3125 13.1875 C-14.910625 12.84847656 -15.50875 12.50945312 -16.125 12.16015625 C-21.04409412 9.97291619 -26.90036394 10.30305011 -31.890625 12.1328125 C-36.32601779 14.46800275 -39.51688307 16.93330032 -42.3125 21.1875 C-48.38110493 19.86344074 -53.71013719 17.85899708 -59.3125 15.1875 C-55.23712531 6.32798981 -47.80410723 0.29269119 -39.1484375 -3.84765625 C-26.78165742 -8.4161403 -10.84208708 -7.52428994 0 0 Z " fill="#FFFFFF" transform="translate(404.3125,400.8125)"/>
<path d="M0 0 C7.37823075 6.08870213 10.96321206 13.3231171 12.16796875 22.7890625 C10.43249001 36.92081793 0.87479418 44.58352532 -9.671875 52.8359375 C-16.50022213 58.05727345 -23.39284956 63.19405123 -30.26953125 68.3515625 C-9.97453125 68.8465625 -9.97453125 68.8465625 10.73046875 69.3515625 C10.73046875 74.6315625 10.73046875 79.9115625 10.73046875 85.3515625 C-11.37953125 85.3515625 -33.48953125 85.3515625 -56.26953125 85.3515625 C-56.26953125 79.4115625 -56.26953125 73.4715625 -56.26953125 67.3515625 C-49.43075172 60.72213337 -49.43075172 60.72213337 -46.27734375 58.8671875 C-42.27935485 56.4059922 -38.66871957 53.60987192 -35.01953125 50.6640625 C-33.85794771 49.7485049 -32.69521274 48.83440598 -31.53125 47.921875 C-27.08968255 44.42418932 -22.66112758 40.91189238 -18.26953125 37.3515625 C-17.58890625 36.80757813 -16.90828125 36.26359375 -16.20703125 35.703125 C-11.61714914 31.93559677 -8.65861187 29.02649178 -7.76953125 22.9140625 C-8.44091739 18.13043628 -9.83518313 16.70785726 -13.26953125 13.3515625 C-17.97966139 10.44382888 -22.91012428 10.6418032 -28.26953125 11.3515625 C-33.85781085 13.40059835 -37.96856281 16.32834965 -41.26953125 21.3515625 C-47.49940923 20.84643726 -52.72427358 18.02552127 -58.26953125 15.3515625 C-54.19415656 6.49205231 -46.76113848 0.45675369 -38.10546875 -3.68359375 C-26.13021434 -8.10744203 -10.4173637 -7.56648448 0 0 Z " fill="#FFFFFF" transform="translate(564.26953125,400.6484375)"/>
<path d="M0 0 C5.94 0 11.88 0 18 0 C18 23.76 18 47.52 18 72 C28.56 72 39.12 72 50 72 C49.96041741 65.4629715 49.96041741 65.4629715 49.90991211 58.92602539 C49.90741455 58.11641357 49.90491699 57.30680176 49.90234375 56.47265625 C49.89710693 55.64000244 49.89187012 54.80734863 49.88647461 53.94946289 C50 52 50 52 51 51 C56.94 51 62.88 51 69 51 C69 63.54 69 76.08 69 89 C46.23 89 23.46 89 0 89 C0 59.63 0 30.26 0 0 Z " fill="#FFFFFF" transform="translate(430,397)"/>
<path d="M0 0 C10.89 0 21.78 0 33 0 C33.06936835 7.25541567 33.12895239 14.50965201 33.16479492 21.76513672 C33.17975774 24.2264397 33.20013528 26.68771659 33.22631836 29.14892578 C33.61951628 67.09637968 33.61951628 67.09637968 24 78 C23.15888672 78.96679688 23.15888672 78.96679688 22.30078125 79.953125 C15.95545884 86.7404811 8.64181227 90.71494368 -0.73046875 91.1171875 C-3.15395102 91.12402384 -5.57744253 91.06729326 -8 91 C-8 85.39 -8 79.78 -8 74 C-6.47375 73.54625 -4.9475 73.0925 -3.375 72.625 C-2.46492187 72.34785156 -1.55484375 72.07070313 -0.6171875 71.78515625 C1.41184559 71.17644632 3.45376198 70.61059947 5.5 70.0625 C9.01982606 68.56657393 9.43169371 66.38300798 10.83357239 62.97145081 C12.81115107 57.41634245 13.46518397 52.46411673 13.51171875 46.58984375 C13.52966995 45.73693253 13.54762115 44.8840213 13.56611633 44.00526428 C13.61973167 41.31605789 13.65395636 38.62702384 13.6875 35.9375 C13.7207163 34.09958563 13.75520986 32.26169387 13.79101562 30.42382812 C13.87542916 25.9493442 13.94247048 21.47490703 14 17 C9.38 17 4.76 17 0 17 C0 11.39 0 5.78 0 0 Z " fill="#FFFFFF" transform="translate(216,397)"/>
</svg>
